<svg id="visual" viewBox="0 0 960 540" width="960" height="540" xmlns="http://www.w3.org/2000/svg" xmlns:xlink="http://www.w3.org/1999/xlink" version="1.1">
  <rect width="100%" height="100%" fill="#001f1b"/>

  <!-- Nodes -->
  <circle id="n1" cx="80" cy="100" r="6" fill="#013b2d"/>
  <circle id="n2" cx="180" cy="200" r="8" fill="#014537"/>
  <circle id="n3" cx="280" cy="120" r="10" fill="#02594e"/>
  <circle id="n4" cx="380" cy="250" r="7" fill="#014537"/>
  <circle id="n5" cx="480" cy="150" r="12" fill="#013b2d"/>
  <circle id="n6" cx="580" cy="100" r="8" fill="#02594e"/>
  <circle id="n7" cx="680" cy="220" r="10" fill="#014537"/>
  <circle id="n8" cx="780" cy="80" r="6" fill="#013b2d"/>
  <circle id="n9" cx="880" cy="300" r="10" fill="#02594e"/>
  <circle id="n10" cx="130" cy="300" r="6" fill="#013b2d"/>
  <circle id="n11" cx="230" cy="380" r="8" fill="#014537"/>
  <circle id="n12" cx="330" cy="340" r="10" fill="#02594e"/>
  <circle id="n13" cx="430" cy="420" r="7" fill="#014537"/>
  <circle id="n14" cx="530" cy="360" r="12" fill="#013b2d"/>
  <circle id="n15" cx="630" cy="400" r="8" fill="#02594e"/>
  <circle id="n16" cx="730" cy="340" r="10" fill="#014537"/>
  <circle id="n17" cx="830" cy="420" r="6" fill="#013b2d"/>
  <circle id="n18" cx="930" cy="380" r="10" fill="#02594e"/>
  <circle id="n19" cx="50" cy="450" r="6" fill="#013b2d"/>
  <circle id="n20" cx="150" cy="480" r="8" fill="#014537"/>
  <circle id="n21" cx="250" cy="440" r="10" fill="#02594e"/>
  <circle id="n22" cx="350" cy="500" r="7" fill="#014537"/>
  <circle id="n23" cx="450" cy="470" r="12" fill="#013b2d"/>
  <circle id="n24" cx="550" cy="500" r="8" fill="#02594e"/>
  <circle id="n25" cx="650" cy="460" r="10" fill="#014537"/>
  <circle id="n26" cx="750" cy="520" r="6" fill="#013b2d"/>
  <circle id="n27" cx="850" cy="480" r="10" fill="#02594e"/>

  <!-- Connections -->
  <!-- For the sake of clarity, I am listing the connections based on nearest neighbors and assigning them randomly as main or secondary -->
  
  <!-- Node 1 connections -->
  <line x1="80" y1="100" x2="180" y2="200" stroke="#02594e" stroke-width="2"/>
  <line x1="80" y1="100" x2="130" y2="300" stroke="#013b2d" stroke-width="2" stroke-dasharray="5,5"/>
  <line x1="80" y1="100" x2="280" y2="120" stroke="#02594e" stroke-width="2"/>

  <!-- Node 2 connections -->
  <line x1="180" y1="200" x2="80" y2="100" stroke="#013b2d" stroke-width="2" stroke-dasharray="5,5"/>
  <line x1="180" y1="200" x2="280" y2="120" stroke="#02594e" stroke-width="2"/>
  <line x1="180" y1="200" x2="380" y2="250" stroke="#013b2d" stroke-width="2" stroke-dasharray="5,5"/>

  <!-- Node 3 connections -->
  <line x1="280" y1="120" x2="80" y2="100" stroke="#013b2d" stroke-width="2" stroke-dasharray="5,5"/>
  <line x1="280" y1="120" x2="180" y2="200" stroke="#02594e" stroke-width="2"/>
  <line x1="280" y1="120" x2="480" y2="150" stroke="#013b2d" stroke-width="2" stroke-dasharray="5,5"/>

  <!-- Node 4 connections -->
  <line x1="380" y1="250" x2="180" y2="200" stroke="#013b2d" stroke-width="2" stroke-dasharray="5,5"/>
  <line x1="380" y1="250" x2="480" y2="150" stroke="#02594e" stroke-width="2"/>
  <line x1="380" y1="250" x2="680" y2="220" stroke="#013b2d" stroke-width="2" stroke-dasharray="5,5"/>

  <!-- Node 5 connections -->
  <line x1="480" y1="150" x2="280" y2="120" stroke="#02594e" stroke-width="2"/>
  <line x1="480" y1="150" x2="380" y2="250" stroke="#013b2d" stroke-width="2" stroke-dasharray="5,5"/>
  <line x1="480" y1="150" x2="580" y2="100" stroke="#02594e" stroke-width="2"/>

  <!-- Node 6 connections -->
  <line x1="580" y1="100" x2="480" y2="150" stroke="#013b2d" stroke-width="2" stroke-dasharray="5,5"/>
  <line x1="580" y1="100" x2="780" y2="80" stroke="#02594e" stroke-width="2"/>
  <line x1="580" y1="100" x2="680" y2="220" stroke="#013b2d" stroke-width="2" stroke-dasharray="5,5"/>

  <!-- Node 7 connections -->
  <line x1="680" y1="220" x2="380" y2="250" stroke="#02594e" stroke-width="2"/>
  <line x1="680" y1="220" x2="580" y2="100" stroke="#013b2d" stroke-width="2" stroke-dasharray="5,5"/>
  <line x1="680" y1="220" x2="880" y2="300" stroke="#02594e" stroke-width="2"/>

  <!-- Node 8 connections -->
  <line x1="780" y1="80" x2="580" y2="100" stroke="#013b2d" stroke-width="2" stroke-dasharray="5,5"/>
  <line x1="780" y1="80" x2="880" y2="300" stroke="#02594e" stroke-width="2"/>
  <line x1="780" y1="80" x2="680" y2="220" stroke="#013b2d" stroke-width="2" stroke-dasharray="5,5"/>

  <!-- Node 9 connections -->
  <line x1="880" y1="300" x2="680" y2="220" stroke="#02594e" stroke-width="2"/>
  <line x1="880" y1="300" x2="780" y2="80" stroke="#013b2d" stroke-width="2" stroke-dasharray="5,5"/>
  <line x1="880" y1="300" x2="830" y2="420" stroke="#02594e" stroke-width="2"/>

  <!-- Node 10 connections -->
  <line x1="130" y1="300" x2="80" y2="100" stroke="#013b2d" stroke-width="2" stroke-dasharray="5,5"/>
  <line x1="130" y1="300" x2="180" y2="200" stroke="#02594e" stroke-width="2"/>
  <line x1="130" y1="300" x2="230" y2="380" stroke="#013b2d" stroke-width="2" stroke-dasharray="5,5"/>

  <!-- Node 11 connections -->
  <line x1="230" y1="380" x2="130" y2="300" stroke="#02594e" stroke-width="2"/>
  <line x1="230" y1="380" x2="330" y2="340" stroke="#013b2d" stroke-width="2" stroke-dasharray="5,5"/>
  <line x1="230" y1="380" x2="430" y2="420" stroke="#02594e" stroke-width="2"/>

  <!-- Node 12 connections -->
  <line x1="330" y1="340" x2="230" y2="380" stroke="#013b2d" stroke-width="2" stroke-dasharray="5,5"/>
  <line x1="330" y1="340" x2="430" y2="420" stroke="#02594e" stroke-width="2"/>
  <line x1="330" y1="340" x2="530" y2="360" stroke="#013b2d" stroke-width="2" stroke-dasharray="5,5"/>

  <!-- Node 13 connections -->
  <line x1="430" y1="420" x2="330" y2="340" stroke="#02594e" stroke-width="2"/>
  <line x1="430" y1="420" x2="530" y2="360" stroke="#013b2d" stroke-width="2" stroke-dasharray="5,5"/>
  <line x1="430" y1="420" x2="630" y2="400" stroke="#02594e" stroke-width="2"/>

  <!-- Node 14 connections -->
  <line x1="530" y1="360" x2="330" y2="340" stroke="#013b2d" stroke-width="2" stroke-dasharray="5,5"/>
  <line x1="530" y1="360" x2="430" y2="420" stroke="#02594e" stroke-width="2"/>
  <line x1="530" y1="360" x2="630" y2="400" stroke="#013b2d" stroke-width="2" stroke-dasharray="5,5"/>

  <!-- Node 15 connections -->
  <line x1="630" y1="400" x2="530" y2="360" stroke="#02594e" stroke-width="2"/>
  <line x1="630" y1="400" x2="430" y2="420" stroke="#013b2d" stroke-width="2" stroke-dasharray="5,5"/>
  <line x1="630" y1="400" x2="730" y2="340" stroke="#02594e" stroke-width="2"/>

  <!-- Node 16 connections -->
  <line x1="730" y1="340" x2="630" y2="400" stroke="#013b2d" stroke-width="2" stroke-dasharray="5,5"/>
  <line x1="730" y1="340" x2="530" y2="360" stroke="#02594e" stroke-width="2"/>
  <line x1="730" y1="340" x2="830" y2="420" stroke="#013b2d" stroke-width="2" stroke-dasharray="5,5"/>

  <!-- Node 17 connections -->
  <line x1="830" y1="420" x2="880" y2="300" stroke="#02594e" stroke-width="2"/>
  <line x1="830" y1="420" x2="730" y2="340" stroke="#013b2d" stroke-width="2" stroke-dasharray="5,5"/>
  <line x1="830" y1="420" x2="630" y2="400" stroke="#02594e" stroke-width="2"/>

  <!-- Node 18 connections -->
  <line x1="930" y1="380" x2="880" y2="300" stroke="#013b2d" stroke-width="2" stroke-dasharray="5,5"/>
  <line x1="930" y1="380" x2="830" y2="420" stroke="#02594e" stroke-width="2"/>
  <line x1="930" y1="380" x2="730" y2="340" stroke="#013b2d" stroke-width="2" stroke-dasharray="5,5"/>

  <!-- Node 19 connections -->
  <line x1="50" y1="450" x2="130" y2="300" stroke="#02594e" stroke-width="2"/>
  <line x1="50" y1="450" x2="230" y2="380" stroke="#013b2d" stroke-width="2" stroke-dasharray="5,5"/>
  <line x1="50" y1="450" x2="150" y2="480" stroke="#02594e" stroke-width="2"/>

  <!-- Node 20 connections -->
  <line x1="150" y1="480" x2="50" y2="450" stroke="#013b2d" stroke-width="2" stroke-dasharray="5,5"/>
  <line x1="150" y1="480" x2="250" y2="440" stroke="#02594e" stroke-width="2"/>
  <line x1="150" y1="480" x2="350" y2="500" stroke="#013b2d" stroke-width="2" stroke-dasharray="5,5"/>

  <!-- Node 21 connections -->
  <line x1="250" y1="440" x2="150" y2="480" stroke="#02594e" stroke-width="2"/>
  <line x1="250" y1="440" x2="350" y2="500" stroke="#013b2d" stroke-width="2" stroke-dasharray="5,5"/>
  <line x1="250" y1="440" x2="230" y2="380" stroke="#02594e" stroke-width="2"/>

  <!-- Node 22 connections -->
  <line x1="350" y1="500" x2="250" y2="440" stroke="#013b2d" stroke-width="2" stroke-dasharray="5,5"/>
  <line x1="350" y1="500" x2="450" y2="470" stroke="#02594e" stroke-width="2"/>
  <line x1="350" y1="500" x2="550" y2="500" stroke="#013b2d" stroke-width="2" stroke-dasharray="5,5"/>

  <!-- Node 23 connections -->
  <line x1="450" y1="470" x2="550" y2="500" stroke="#02594e" stroke-width="2"/>
  <line x1="450" y1="470" x2="350" y2="500" stroke="#013b2d" stroke-width="2" stroke-dasharray="5,5"/>
  <line x1="450" y1="470" x2="650" y2="460" stroke="#02594e" stroke-width="2"/>

  <!-- Node 24 connections -->
  <line x1="550" y1="500" x2="450" y2="470" stroke="#013b2d" stroke-width="2" stroke-dasharray="5,5"/>
  <line x1="550" y1="500" x2="650" y2="460" stroke="#02594e" stroke-width="2"/>
  <line x1="550" y1="500" x2="350" y2="500" stroke="#013b2d" stroke-width="2" stroke-dasharray="5,5"/>

  <!-- Node 25 connections -->
  <line x1="650" y1="460" x2="550" y2="500" stroke="#02594e" stroke-width="2"/>
  <line x1="650" y1="460" x2="450" y2="470" stroke="#013b2d" stroke-width="2" stroke-dasharray="5,5"/>
  <line x1="650" y1="460" x2="750" y2="520" stroke="#02594e" stroke-width="2"/>

  <!-- Node 26 connections -->
  <line x1="750" y1="520" x2="650" y2="460" stroke="#013b2d" stroke-width="2" stroke-dasharray="5,5"/>
  <line x1="750" y1="520" x2="850" y2="480" stroke="#02594e" stroke-width="2"/>
  <line x1="750" y1="520" x2="550" y2="500" stroke="#013b2d" stroke-width="2" stroke-dasharray="5,5"/>
  </svg>